<?xml version="1.0" standalone="no"?>
<!DOCTYPE svg PUBLIC "-//W3C//DTD SVG 20010904//EN"
 "http://www.w3.org/TR/2001/REC-SVG-20010904/DTD/svg10.dtd">
<svg version="1.0" xmlns="http://www.w3.org/2000/svg"
 width="500.000000pt" height="500.000000pt" viewBox="0 0 500.000000 500.000000"
 preserveAspectRatio="xMidYMid meet">
<metadata>
Created by potrace 1.14, written by Peter Selinger 2001-2017
</metadata>
<g transform="translate(0.000000,500.000000) scale(0.100000,-0.100000)"
fill="#000000" stroke="none">
<path d="M1385 4552 c-11 -2 -26 -9 -34 -16 -11 -8 -13 -8 -7 1 4 7 -16 1 -43
-13 -28 -15 -49 -32 -48 -38 1 -6 -4 -10 -10 -8 -7 1 -13 -4 -13 -12 0 -7 -8
-20 -17 -27 -17 -13 -17 -13 -3 6 14 18 14 19 -2 7 -10 -8 -14 -20 -11 -29 4
-9 2 -14 -3 -10 -5 3 -16 -8 -23 -24 -8 -18 -17 -26 -24 -22 -7 4 -5 -2 3 -12
8 -10 11 -16 5 -13 -5 3 -16 0 -23 -8 -8 -9 -9 -14 -2 -14 6 0 4 -7 -4 -16 -9
-8 -14 -20 -11 -25 4 -5 1 -9 -5 -9 -7 0 -10 -7 -6 -15 3 -8 0 -15 -6 -15 -6
0 -8 -3 -5 -6 3 -4 1 -16 -6 -28 -12 -20 -13 -27 -16 -54 0 -7 -5 -11 -10 -8
-5 4 -8 -2 -6 -11 1 -10 0 -22 -3 -28 -6 -9 -13 -45 -15 -77 -1 -10 -5 -18
-10 -18 -5 0 -6 -7 -3 -16 4 -10 2 -13 -6 -8 -7 5 -9 0 -6 -14 3 -12 2 -22 -4
-24 -5 -2 -11 -23 -14 -47 -2 -24 -8 -49 -14 -56 -5 -6 -7 -15 -3 -18 3 -4 1
-7 -5 -7 -7 0 -12 -5 -12 -11 0 -5 6 -7 13 -4 6 4 3 -1 -8 -10 -17 -14 -18
-17 -5 -25 12 -8 12 -10 1 -10 -7 0 -11 -6 -7 -15 3 -8 2 -15 -3 -15 -4 0 -5
-14 -3 -31 3 -19 1 -29 -5 -26 -5 3 -10 0 -10 -8 0 -8 4 -15 9 -15 4 0 8 -5 8
-11 0 -5 -4 -7 -10 -4 -6 4 -10 -7 -10 -25 0 -17 -4 -29 -9 -26 -12 8 -8 -27
4 -36 6 -5 3 -8 -7 -8 -10 0 -15 -7 -13 -17 1 -10 -3 -24 -9 -32 -9 -12 -8
-13 3 -6 11 6 13 4 8 -9 -4 -10 -7 -20 -7 -22 0 -3 -4 -3 -9 1 -6 3 -7 -6 -2
-22 10 -34 4 -56 -12 -46 -7 4 -6 -1 2 -10 11 -14 11 -17 0 -17 -12 0 -12 -2
0 -9 9 -6 10 -10 2 -16 -9 -5 -9 -10 0 -21 10 -12 9 -13 -6 -8 -15 6 -16 4 -5
-16 7 -13 8 -20 1 -16 -6 4 -9 -6 -7 -29 1 -20 -1 -38 -5 -41 -5 -2 -6 -11 -2
-19 3 -8 0 -15 -7 -15 -9 0 -10 -3 -1 -13 6 -8 9 -16 6 -19 -3 -3 -6 -30 -7
-61 -1 -32 -7 -57 -13 -57 -5 0 -3 -5 5 -10 13 -9 13 -12 -3 -24 -14 -11 -15
-15 -5 -19 8 -3 5 -6 -7 -6 -17 -1 -17 -3 -5 -11 13 -8 13 -10 -2 -10 -11 0
-15 -5 -12 -14 3 -8 0 -17 -5 -21 -6 -3 -9 -11 -6 -16 4 -5 1 -9 -4 -9 -6 0
-10 -3 -9 -7 1 -5 -3 -18 -10 -30 -7 -13 -10 -23 -6 -23 4 0 -3 -8 -14 -19
-12 -10 -19 -21 -15 -24 3 -4 1 -13 -5 -20 -7 -8 -9 -17 -5 -20 3 -4 1 -7 -6
-7 -7 0 -9 -4 -6 -10 3 -5 1 -10 -5 -10 -7 0 -9 -7 -6 -16 3 -8 2 -13 -3 -10
-9 6 -22 -25 -24 -54 -1 -8 -6 -18 -11 -22 -5 -3 -11 -17 -13 -29 -2 -13 -7
-26 -11 -29 -7 -5 -10 -14 -18 -54 -2 -11 -7 -22 -11 -25 -8 -6 -15 -27 -16
-48 0 -7 -5 -13 -10 -13 -5 0 -7 -9 -4 -20 3 -11 2 -20 -3 -20 -7 0 -24 -57
-21 -72 0 -5 -3 -8 -8 -8 -5 0 -8 -11 -7 -25 2 -13 -1 -22 -5 -19 -8 5 -13
-25 -12 -63 1 -7 -4 -13 -9 -13 -6 0 -8 -7 -4 -15 3 -8 1 -15 -4 -15 -6 0 -9
-3 -8 -7 3 -15 -16 -68 -29 -81 -7 -8 -10 -18 -7 -24 4 -7 2 -8 -4 -4 -7 4
-12 2 -12 -3 0 -6 -7 -11 -15 -11 -8 0 -15 -4 -15 -10 0 -5 -7 -10 -15 -10 -8
0 -15 -5 -15 -12 0 -6 -3 -9 -6 -5 -4 3 -13 -1 -21 -9 -9 -8 -22 -13 -29 -10
-8 3 -13 0 -11 -7 1 -7 -4 -11 -10 -9 -7 1 -13 -3 -13 -8 0 -6 -11 -15 -25
-20 -14 -5 -25 -14 -25 -20 0 -5 -5 -10 -10 -10 -13 0 -50 -37 -50 -50 0 -5
-7 -10 -16 -10 -8 0 -13 -4 -9 -9 3 -5 0 -13 -6 -16 -5 -4 -8 -13 -5 -21 3 -8
1 -14 -4 -14 -13 0 -5 -67 11 -87 11 -13 11 -15 1 -9 -11 7 -11 4 0 -15 19
-33 35 -49 42 -42 4 4 4 -4 2 -18 -2 -13 -5 -28 -5 -32 -1 -5 -6 -5 -13 -1 -7
4 -8 3 -4 -4 4 -7 -2 -22 -13 -34 -12 -12 -21 -28 -21 -35 0 -8 -4 -11 -10 -8
-6 3 -7 -1 -4 -9 3 -9 2 -16 -4 -16 -5 0 -8 -14 -7 -30 1 -17 -1 -30 -4 -30
-4 0 -7 -13 -7 -30 0 -16 3 -30 8 -30 11 0 6 -23 -7 -32 -6 -4 -1 -8 9 -8 11
0 16 -3 13 -7 -4 -3 -1 -13 6 -21 10 -13 9 -14 -1 -8 -12 7 -12 4 -1 -15 7
-13 12 -27 11 -32 -1 -4 3 -7 8 -7 6 0 10 -7 10 -15 0 -8 5 -15 12 -15 6 0 8
-3 5 -7 -4 -3 1 -12 11 -20 10 -9 11 -12 2 -7 -15 7 -15 7 38 -52 10 -11 18
-28 16 -37 -1 -9 2 -17 7 -17 5 0 9 -12 9 -26 0 -17 4 -23 12 -18 8 5 7 0 -2
-11 -9 -11 -10 -16 -3 -11 12 6 18 -5 14 -26 0 -5 3 -8 9 -8 5 0 7 -7 4 -15
-4 -9 0 -15 7 -15 11 0 11 -2 -1 -10 -12 -8 -12 -10 3 -16 9 -3 14 -10 11 -15
-3 -5 0 -9 6 -9 6 0 9 -4 6 -8 -3 -5 4 -15 15 -22 10 -8 19 -24 20 -35 0 -11
3 -14 6 -8 3 10 8 10 19 -1 8 -8 14 -20 14 -26 0 -6 4 -9 9 -6 5 3 12 -1 15
-10 3 -8 11 -12 17 -8 8 5 9 3 5 -5 -5 -8 0 -14 14 -18 15 -4 18 -8 10 -13 -8
-5 -1 -10 20 -15 25 -5 29 -9 19 -17 -10 -7 -8 -9 8 -5 15 3 20 1 16 -9 -3 -9
2 -14 17 -14 11 0 18 -4 15 -10 -3 -5 1 -10 9 -10 9 0 16 -4 16 -10 0 -5 6
-10 13 -10 8 0 22 -9 32 -20 10 -11 27 -20 37 -20 11 0 16 -4 13 -10 -3 -5 1
-10 9 -10 9 0 16 -4 16 -10 0 -5 9 -10 20 -10 11 0 25 -9 32 -19 10 -16 15
-18 27 -8 12 9 13 9 7 0 -4 -8 -1 -13 8 -13 9 0 16 -5 16 -11 0 -5 4 -8 9 -5
5 3 11 -1 15 -9 3 -8 12 -12 21 -9 8 4 17 0 20 -9 4 -8 16 -13 30 -11 14 1 28
-3 32 -8 4 -7 1 -8 -8 -3 -12 7 -12 5 -1 -6 11 -12 14 -12 21 0 7 11 10 9 16
-8 5 -18 9 -20 21 -10 8 6 14 8 14 3 0 -5 11 -14 25 -21 19 -8 23 -8 19 0 -5
8 -2 7 7 0 7 -7 23 -13 36 -13 13 0 23 -3 23 -7 0 -5 11 -13 25 -20 14 -6 23
-7 19 -2 -3 5 0 9 5 9 6 0 11 -4 11 -9 0 -5 11 -8 25 -7 14 2 30 -3 37 -11 9
-11 13 -11 20 -1 6 11 10 11 17 0 4 -8 12 -14 17 -15 5 -1 8 -6 6 -12 -2 -5 6
-1 18 10 20 18 21 18 14 0 -5 -12 -4 -16 4 -11 6 3 13 3 16 -2 3 -5 19 -7 37
-4 24 4 30 2 24 -8 -6 -10 -4 -11 6 -4 21 13 39 14 39 1 0 -7 5 -5 10 3 5 8
10 10 10 4 0 -7 7 -15 16 -18 8 -3 13 -2 10 3 -3 5 3 11 15 14 15 4 18 2 10
-7 -8 -9 -7 -13 4 -13 8 0 15 5 16 11 0 6 4 2 9 -9 5 -11 9 -14 9 -7 1 6 8 12
16 12 8 0 15 -6 15 -12 0 -10 2 -10 9 0 7 11 9 11 14 -1 3 -9 16 -13 31 -12
14 2 26 -1 26 -6 0 -6 5 -7 10 -4 6 4 8 11 5 16 -3 5 1 6 9 3 9 -3 13 -11 9
-18 -4 -6 1 -5 10 3 12 9 17 10 17 2 0 -9 5 -9 22 0 18 10 20 9 14 -6 -5 -14
-4 -15 7 -7 10 9 17 8 27 -1 10 -10 12 -8 6 7 -5 16 -4 17 8 7 8 -7 23 -12 33
-11 34 4 44 0 37 -12 -4 -7 2 -5 13 5 16 14 23 15 29 6 5 -8 3 -10 -6 -4 -9 5
-11 4 -6 -4 6 -9 11 -9 22 0 11 9 14 8 14 -2 0 -12 2 -12 9 0 6 9 10 10 16 2
5 -9 10 -9 21 0 11 9 14 8 14 -4 0 -9 4 -19 10 -22 5 -3 7 0 4 8 -3 8 0 18 7
23 8 5 10 3 4 -6 -6 -10 -4 -12 8 -7 9 3 19 2 22 -3 3 -6 16 -5 31 0 14 6 23
6 20 1 -3 -5 1 -11 9 -14 10 -4 12 -1 9 11 -5 14 -3 13 10 -2 15 -18 21 -15
16 9 -1 5 8 1 19 -9 17 -15 23 -16 36 -6 12 10 15 10 15 0 0 -10 3 -10 14 -1
11 9 16 9 22 0 5 -8 3 -9 -6 -4 -9 6 -11 4 -5 -5 6 -10 11 -9 22 5 13 18 13
18 14 -1 0 -10 3 -13 6 -6 2 6 9 12 14 12 6 0 8 -4 5 -8 -3 -5 1 -9 9 -9 8 0
12 4 9 9 -10 16 9 8 22 -9 13 -17 14 -17 8 0 -5 13 -2 16 10 11 9 -3 16 -11
16 -18 0 -7 3 -7 8 2 9 14 88 12 111 -2 9 -6 12 -5 7 2 -8 14 34 12 53 -2 11
-8 13 -8 7 2 -8 13 19 13 41 -1 6 -4 14 -3 18 3 9 14 42 13 48 -2 4 -10 6 -10
6 0 1 7 6 10 11 7 6 -3 10 -1 10 6 0 7 6 5 13 -5 13 -18 15 -18 42 0 16 11 26
13 22 7 -10 -17 5 -17 22 0 9 7 11 7 8 1 -4 -7 0 -14 8 -17 10 -4 12 -1 8 10
-5 12 -3 14 8 7 21 -13 39 -14 39 -2 0 6 6 5 15 -2 8 -7 15 -8 15 -3 0 6 12 8
26 5 15 -3 24 -1 21 4 -3 5 8 9 25 10 20 1 25 -2 16 -7 -9 -6 -9 -9 -1 -9 6 0
15 5 19 11 5 8 8 8 14 0 9 -15 42 -3 34 13 -3 6 1 3 9 -7 14 -17 15 -17 22 0
7 17 8 17 15 -2 8 -17 9 -18 9 -2 1 14 5 16 19 8 11 -6 24 -6 32 -1 9 5 20 5
27 -2 11 -8 12 -7 7 7 -6 15 -4 16 14 6 14 -7 23 -8 27 -1 3 5 11 10 16 10 6
0 7 -6 3 -13 -6 -9 -4 -9 7 -1 20 15 51 26 45 15 -3 -5 1 -11 9 -14 10 -4 12
-1 8 11 -6 15 -5 16 12 2 10 -8 16 -10 12 -4 -4 7 0 15 9 18 8 3 12 2 9 -4 -9
-14 8 -12 24 2 11 11 12 10 6 -2 -8 -13 -7 -13 8 -1 11 9 17 10 17 2 0 -6 5
-11 11 -11 5 0 8 4 5 9 -3 5 1 11 9 15 8 3 17 1 21 -5 3 -6 12 -3 21 8 8 10
11 11 7 3 -7 -13 -5 -13 8 -2 13 10 17 10 21 0 4 -10 6 -10 6 0 1 6 11 12 24
12 13 0 29 6 36 13 11 9 13 9 7 0 -9 -16 -1 -16 26 -2 15 8 18 8 14 0 -5 -7
-1 -9 8 -5 9 3 16 11 16 16 0 6 6 5 15 -2 11 -9 15 -9 15 -1 0 7 5 9 10 6 6
-3 10 -2 10 3 0 9 8 11 59 14 17 1 27 6 24 11 -3 5 10 8 28 7 42 -2 79 9 79
23 0 6 3 7 7 4 3 -4 12 -2 20 4 10 9 13 8 13 0 0 -8 6 -7 16 3 8 9 19 14 24
11 5 -3 11 -1 15 5 4 6 11 8 16 5 5 -4 9 -1 9 5 0 6 5 8 10 5 6 -4 17 -1 25 5
8 6 19 9 25 5 5 -3 10 -2 10 2 0 5 9 14 21 21 12 8 18 9 14 3 -3 -6 -2 -11 3
-11 6 0 13 7 16 16 3 8 10 12 16 9 5 -3 10 -2 10 4 0 6 7 8 15 5 8 -4 17 1 21
9 3 9 14 14 26 12 14 -3 18 0 14 11 -4 9 -2 12 5 8 15 -9 60 17 52 30 -3 6 -3
8 2 4 4 -4 14 -3 22 3 7 6 13 8 13 4 0 -4 7 -2 15 5 8 7 12 16 9 21 -3 5 1 6
9 3 8 -3 22 2 31 11 9 9 16 13 16 10 0 -4 9 3 21 16 11 13 17 18 14 11 -6 -11
-3 -11 13 -1 12 7 18 19 14 27 -3 10 -1 13 6 8 6 -3 22 5 36 19 14 14 26 23
26 20 0 -3 13 7 28 22 16 15 27 31 25 34 -1 4 7 9 18 12 12 3 18 10 15 15 -3
5 2 16 11 23 14 12 16 12 8 0 -5 -10 -4 -12 4 -7 6 4 9 11 7 15 -3 4 4 17 14
29 11 12 20 26 20 32 0 6 5 8 12 4 7 -4 8 -3 4 4 -4 6 0 22 9 35 8 13 12 27 8
32 -5 4 -3 5 3 2 7 -4 15 0 18 9 9 23 8 26 -6 18 -10 -6 -10 -4 -2 7 13 17 16
59 4 59 -4 0 -11 7 -14 16 -3 8 -2 12 4 9 6 -3 10 -1 10 4 0 6 -4 11 -8 11 -4
0 -7 12 -7 28 1 15 -3 33 -8 39 -6 9 -2 16 14 22 13 5 17 10 10 10 -12 1 -12
4 -3 13 7 7 12 20 12 29 0 10 4 19 9 21 4 2 12 14 16 27 5 18 4 22 -6 16 -8
-5 -5 2 6 15 14 16 16 24 8 27 -10 4 -9 8 2 20 11 10 13 19 6 27 -7 9 -7 16 1
24 7 7 8 12 4 12 -5 0 -3 7 4 15 7 8 8 15 3 15 -5 0 -10 7 -10 15 0 8 4 12 9
9 4 -3 8 -1 8 5 0 5 -4 12 -8 15 -9 6 -8 48 2 64 4 7 2 12 -4 12 -6 0 -8 5 -3
13 11 18 10 67 -1 67 -6 0 -5 5 2 12 14 14 16 32 3 24 -5 -3 -12 1 -15 10 -4
10 -2 13 7 8 6 -4 4 2 -5 13 -10 11 -18 25 -18 31 0 7 -4 12 -10 12 -5 0 -10
7 -10 15 0 8 -6 15 -14 15 -8 0 -17 8 -20 18 -4 11 -18 25 -31 32 -14 7 -25
17 -25 22 0 4 -7 8 -16 8 -8 0 -12 5 -9 10 3 6 -1 10 -9 10 -9 0 -16 5 -16 10
0 6 -5 10 -11 10 -15 0 -39 26 -32 34 4 3 -1 6 -10 6 -9 0 -16 3 -15 8 0 4 -2
15 -7 26 -5 11 -4 26 3 37 9 13 9 20 0 25 -7 5 -8 3 -3 -6 5 -9 4 -11 -4 -6
-9 6 -9 11 -1 21 8 10 7 14 -2 18 -10 4 -10 6 1 6 11 1 11 4 1 16 -7 8 -8 15
-3 15 5 0 9 8 9 19 0 12 -5 17 -14 13 -12 -4 -12 -1 -3 16 8 15 8 23 0 28 -6
3 -9 15 -6 25 3 11 1 19 -4 19 -4 0 -5 7 -2 17 4 11 3 14 -5 9 -9 -5 -9 -1 -2
18 6 16 6 27 0 31 -6 4 -10 15 -10 26 0 10 -3 19 -7 19 -5 0 -9 12 -10 27 0
15 -6 29 -12 31 -9 3 -9 8 0 18 7 8 7 14 1 14 -9 0 -27 47 -24 63 1 4 -1 7 -6
7 -4 0 -7 15 -7 34 0 19 3 32 7 30 4 -2 9 0 13 6 3 5 1 10 -6 10 -8 0 -8 4 -2
13 6 6 11 19 11 27 1 24 8 49 14 56 4 3 4 12 1 20 -3 8 0 14 7 14 10 0 10 3 0
15 -10 12 -10 15 0 15 7 0 10 7 6 15 -3 8 0 15 7 15 8 0 8 3 -2 9 -7 5 -9 11
-4 14 6 4 9 22 8 42 -1 19 3 35 9 35 6 0 4 4 -4 10 -12 8 -12 10 3 16 9 3 14
10 11 15 -3 5 -11 6 -17 2 -7 -3 -4 2 5 13 14 16 15 23 5 34 -9 10 -9 11 1 6
15 -9 15 -1 1 26 -9 16 -8 19 1 13 10 -6 12 -1 8 19 -3 14 -2 26 1 26 3 0 6
11 6 25 0 14 -2 25 -5 25 -3 0 -5 11 -5 24 0 13 3 22 7 20 4 -2 9 0 13 6 3 5
2 10 -3 10 -6 0 -13 7 -16 16 -3 8 -2 12 4 9 6 -3 10 1 10 9 0 8 -5 18 -11 21
-7 5 -6 12 3 23 17 20 17 29 -1 62 -14 24 -13 24 4 10 11 -9 16 -10 11 -3 -14
24 -15 57 -3 72 9 12 9 13 0 7 -8 -4 -13 -2 -13 8 0 8 5 18 11 21 7 5 4 14 -7
26 -9 10 -12 19 -6 19 7 0 7 10 1 33 -5 18 -7 43 -4 57 3 13 -1 28 -8 32 -9 6
-8 8 3 8 13 0 13 2 1 9 -12 8 -12 12 -2 24 9 11 9 17 1 22 -7 4 -10 18 -7 31
2 13 0 24 -4 24 -5 0 -4 11 1 25 7 19 6 23 -5 18 -8 -3 -15 0 -15 6 0 6 5 11
11 11 6 0 7 5 2 13 -8 13 -10 23 -17 72 -2 18 -9 29 -17 27 -9 -2 -10 0 -1 11
9 10 9 17 -1 27 -10 10 -9 11 3 5 12 -7 13 -6 3 7 -7 8 -10 18 -6 21 3 4 0 7
-8 7 -11 0 -11 2 1 10 9 6 11 10 3 10 -7 0 -10 7 -6 17 4 10 2 14 -4 10 -6 -4
-8 3 -5 18 2 14 0 25 -6 25 -5 0 -9 15 -8 34 1 19 -2 32 -6 30 -3 -2 -9 0 -13
6 -3 5 0 10 7 10 8 0 9 3 3 8 -16 11 -39 56 -25 47 8 -5 8 0 -1 16 -7 13 -13
28 -14 32 0 4 -5 11 -10 15 -6 4 -11 16 -11 27 0 11 -5 19 -11 18 -6 -1 -10 8
-8 23 1 14 -3 28 -10 30 -7 3 -20 23 -30 45 -10 21 -22 39 -27 39 -4 0 -8 5
-8 10 0 6 -11 23 -25 38 -14 15 -25 23 -25 18 0 -5 -8 0 -17 10 -10 10 -25 20
-33 22 -8 2 -17 7 -20 10 -9 12 -43 14 -35 3 3 -7 0 -8 -9 -5 -9 3 -13 11 -9
18 3 6 -2 3 -13 -6 -14 -13 -23 -14 -38 -6 -14 8 -17 7 -12 -1 4 -6 2 -12 -3
-12 -6 -1 -15 -3 -21 -4 -5 -1 -19 -3 -31 -4 -13 -1 -18 -5 -13 -13 5 -8 2 -9
-9 -5 -10 4 -17 2 -17 -4 0 -6 -7 -9 -15 -5 -8 3 -15 1 -15 -5 0 -5 -13 -15
-30 -20 -16 -6 -30 -15 -30 -20 0 -5 -5 -9 -10 -9 -6 0 -16 -5 -23 -10 -46
-39 -61 -50 -69 -50 -5 0 -6 -5 -2 -11 4 -7 2 -10 -6 -7 -11 3 -48 -23 -102
-74 -10 -10 -22 -18 -28 -18 -5 0 -14 -9 -20 -21 -7 -11 -14 -18 -17 -15 -3 2
-16 -7 -29 -21 -13 -14 -24 -23 -24 -19 0 4 -20 -14 -45 -40 -25 -25 -45 -43
-45 -40 0 4 -22 -16 -49 -43 -27 -27 -51 -47 -54 -44 -3 2 -10 -5 -17 -16 -6
-12 -15 -19 -21 -16 -5 4 -9 0 -9 -8 0 -8 -18 -24 -40 -35 -22 -10 -37 -21
-34 -24 2 -3 -9 -11 -26 -18 -16 -7 -30 -16 -30 -21 0 -5 -5 -9 -11 -9 -5 0
-7 6 -3 13 6 9 5 9 -7 0 -19 -15 -59 -13 -59 4 0 7 -7 13 -16 13 -8 0 -12 5
-9 10 3 6 1 10 -4 10 -6 0 -11 6 -11 14 0 8 -9 18 -20 21 -11 3 -20 11 -20 16
0 5 -7 9 -15 9 -8 0 -15 6 -15 13 0 9 -2 9 -9 -1 -6 -11 -10 -10 -15 4 -6 16
-8 16 -16 4 -6 -8 -10 -10 -10 -4 0 16 -36 24 -49 11 -8 -8 -11 -8 -11 1 0 6
-7 9 -15 6 -8 -4 -21 -1 -29 5 -7 6 -17 7 -21 3 -5 -4 -5 -1 -1 6 4 6 2 12 -4
12 -6 0 -8 5 -5 10 3 6 2 10 -4 10 -11 0 -27 39 -22 55 1 6 0 7 -4 3 -8 -8
-48 37 -58 65 -3 9 -14 17 -24 17 -13 0 -14 3 -6 8 9 6 7 12 -9 22 -11 8 -31
25 -43 37 -13 12 -26 19 -29 16 -3 -4 -6 -1 -6 5 0 7 -7 12 -15 12 -8 0 -15 6
-15 13 0 9 -2 9 -9 -1 -6 -11 -10 -10 -15 3 -3 10 -12 15 -21 11 -8 -3 -15 -1
-15 5 0 6 -6 9 -12 6 -7 -2 -23 0 -35 4 -16 6 -23 5 -23 -4 0 -8 -4 -7 -10 3
-7 11 -10 11 -10 2 0 -7 -6 -12 -12 -11 -24 4 -68 -13 -61 -24 3 -6 1 -7 -5
-3 -14 9 -55 -18 -44 -28 4 -4 3 -7 -3 -6 -22 5 -35 -1 -35 -15 0 -9 -7 -18
-16 -22 -13 -5 -13 -7 -2 -14 10 -7 9 -9 -4 -9 -9 0 -20 -5 -24 -12 -4 -7 -3
-8 4 -4 7 4 12 2 12 -3 0 -6 -4 -11 -8 -11 -5 0 -7 -13 -6 -30 1 -16 -1 -30
-5 -30 -4 0 -7 -9 -7 -20 0 -11 5 -20 11 -20 5 0 3 -5 -5 -10 -8 -5 -10 -10
-5 -10 6 0 10 -15 10 -33 0 -27 -3 -33 -20 -32 -11 0 -26 4 -32 8 -7 5 -13 6
-13 3 0 -3 -31 26 -70 65 -38 38 -70 74 -70 79 0 6 -7 10 -15 10 -8 0 -15 5
-15 12 0 12 -3 15 -77 93 -26 27 -47 53 -46 57 2 4 -6 10 -17 13 -11 4 -20 14
-20 22 0 9 -3 14 -6 10 -3 -3 -16 4 -29 16 -40 39 -70 62 -77 59 -5 -1 -8 3
-8 8 0 6 -6 10 -14 10 -8 0 -17 9 -21 20 -3 11 -9 19 -13 18 -16 -3 -72 29
-65 37 5 4 0 5 -9 2 -10 -4 -18 -2 -18 4 0 6 -4 7 -10 4 -5 -3 -10 -1 -10 6 0
7 -3 9 -7 6 -3 -4 -15 1 -26 10 -11 10 -17 12 -13 6 9 -17 1 -16 -34 2 -23 12
-30 13 -30 3 0 -9 -3 -9 -8 -3 -4 6 -16 9 -27 7z m305 -4308 c0 -8 -19 -13
-24 -6 -3 5 1 9 9 9 8 0 15 -2 15 -3z"/>
</g>
</svg>
